<?xml version="1.0" encoding="utf-8"?>
<!-- Generator: Adobe Illustrator 15.0.2, SVG Export Plug-In . SVG Version: 6.00 Build 0)  -->
<!DOCTYPE svg PUBLIC "-//W3C//DTD SVG 1.1//EN" "http://www.w3.org/Graphics/SVG/1.1/DTD/svg11.dtd">
<svg version="1.1" id="Layer_1" xmlns="http://www.w3.org/2000/svg" xmlns:xlink="http://www.w3.org/1999/xlink" x="0px" y="0px"
	 width="1000px" height="1044px" viewBox="0 0 1000 1044" enable-background="new 0 0 1000 1044" xml:space="preserve">
<rect x="-229" y="-98" fill="#80BC67" width="1545" height="1224"/>
<polygon fill="#80BC67" points="0.477,1044 50.477,957.397 100.477,1044 "/>
<polygon fill="#80BC67" points="200.477,1044 250.477,957.397 300.477,1044 "/>
<polygon fill="#80BC67" points="600.477,1044 650.477,957.397 700.477,1044 "/>
<polygon fill="#80BC67" points="700.477,1044 750.477,957.397 800.477,1044 "/>
<polygon fill="#80BC67" points="50.477,957 100.477,870.397 150.477,957 "/>
<polygon fill="#80BC67" points="250.477,957 300.477,870.397 350.477,957 "/>
<polygon fill="#80BC67" points="450.477,957 500.477,870.397 550.477,957 "/>
<polygon fill="#80BC67" points="550.477,957 600.477,870.397 650.477,957 "/>
<polygon fill="#80BC67" points="650.477,957 700.477,870.397 750.477,957 "/>
<polygon fill="#80BC67" points="200.477,870 250.477,783.397 300.477,870 "/>
<polygon fill="#80BC67" points="600.477,870 650.477,783.397 700.477,870 "/>
<polygon fill="#80BC67" points="800.477,870 850.477,783.397 900.477,870 "/>
<polygon fill="#80BC67" points="250.477,783 300.477,696.397 350.477,783 "/>
<polygon fill="#80BC67" points="350.477,783 400.477,696.397 450.477,783 "/>
<polygon fill="#80BC67" points="450.477,783 500.477,696.397 550.477,783 "/>
<polygon fill="#80BC67" points="950.477,783 1000.477,696.397 1050.477,783 "/>
<polygon fill="#80BC67" points="200.477,696 250.477,609.397 300.477,696 "/>
<polygon fill="#80BC67" points="300.477,696 350.477,609.397 400.477,696 "/>
<polygon fill="#80BC67" points="400.477,696 450.477,609.397 500.477,696 "/>
<polygon fill="#80BC67" points="500.477,696 550.477,609.397 600.477,696 "/>
<polygon fill="#80BC67" points="700.477,696 750.477,609.397 800.477,696 "/>
<polygon fill="#80BC67" points="800.477,696 850.477,609.397 900.477,696 "/>
<polygon fill="#80BC67" points="900.477,696 950.477,609.397 1000.477,696 "/>
<polygon fill="#80BC67" points="150.477,609 200.477,522.397 250.477,609 "/>
<polygon fill="#80BC67" points="450.477,609 500.477,522.397 550.477,609 "/>
<polygon fill="#80BC67" points="650.477,609 700.477,522.397 750.477,609 "/>
<polygon fill="#80BC67" points="750.477,609 800.477,522.397 850.477,609 "/>
<polygon fill="#80BC67" points="950.477,609 1000.477,522.397 1050.477,609 "/>
<polygon fill="#80BC67" points="100.477,522 150.477,435.397 200.477,522 "/>
<polygon fill="#80BC67" points="500.477,522 550.477,435.397 600.477,522 "/>
<polygon fill="#80BC67" points="600.477,522 650.477,435.397 700.477,522 "/>
<polygon fill="#80BC67" points="700.477,522 750.477,435.397 800.477,522 "/>
<polygon fill="#80BC67" points="800.477,522 850.477,435.397 900.477,522 "/>
<polygon fill="#80BC67" points="900.477,522 950.477,435.397 1000.477,522 "/>
<polygon fill="#80BC67" points="50.477,435 100.477,348.397 150.477,435 "/>
<polygon fill="#80BC67" points="150.477,435 200.477,348.397 250.477,435 "/>
<polygon fill="#80BC67" points="550.477,435 600.477,348.397 650.477,435 "/>
<polygon fill="#80BC67" points="750.477,435 800.477,348.397 850.477,435 "/>
<polygon fill="#80BC67" points="100.477,348 150.477,261.397 200.477,348 "/>
<polygon fill="#80BC67" points="200.477,348 250.477,261.397 300.477,348 "/>
<polygon fill="#80BC67" points="350.477,261 400.477,174.397 450.477,261 "/>
<polygon fill="#80BC67" points="550.477,261 600.477,174.397 650.477,261 "/>
<polygon fill="#80BC67" points="300.477,174 350.477,87.397 400.477,174 "/>
<polygon fill="#80BC67" points="600.477,174 650.477,87.397 700.477,174 "/>
<polygon fill="#80BC67" points="50.477,87 100.477,0.397 150.477,87 "/>
<polygon fill="#80BC67" points="250.477,87 300.477,0.397 350.477,87 "/>
<polygon fill="#80BC67" points="350.477,87 400.477,0.397 450.477,87 "/>
<polygon fill="#80BC67" points="550.477,87 600.477,0.397 650.477,87 "/>
<polygon fill="#80BC67" points="900.477,0 850.477,86.603 800.477,0 "/>
<polygon fill="#80BC67" points="800.477,0 750.477,86.603 700.477,0 "/>
<polygon fill="#80BC67" points="200.477,0 150.477,86.603 100.477,0 "/>
<polygon fill="#80BC67" points="950.477,87 900.477,173.603 850.477,87 "/>
<polygon fill="#80BC67" points="850.477,87 800.477,173.603 750.477,87 "/>
<polygon fill="#80BC67" points="550.477,87 500.477,173.603 450.477,87 "/>
<polygon fill="#80BC67" points="250.477,87 200.477,173.603 150.477,87 "/>
<polygon fill="#80BC67" points="1000.477,174 950.477,260.603 900.477,174 "/>
<polygon fill="#80BC67" points="900.477,174 850.477,260.603 800.477,174 "/>
<polygon fill="#80BC67" points="800.477,174 750.477,260.603 700.477,174 "/>
<polygon fill="#80BC67" points="300.477,174 250.477,260.603 200.477,174 "/>
<polygon fill="#80BC67" points="200.477,174 150.477,260.603 100.477,174 "/>
<polygon fill="#80BC67" points="100.477,174 50.477,260.603 0.477,174 "/>
<polygon fill="#80BC67" points="950.477,261 900.477,347.603 850.477,261 "/>
<polygon fill="#80BC67" points="750.477,261 700.477,347.603 650.477,261 "/>
<polygon fill="#80BC67" points="650.477,261 600.477,347.603 550.477,261 "/>
<polygon fill="#80BC67" points="550.477,261 500.477,347.603 450.477,261 "/>
<polygon fill="#80BC67" points="450.477,261 400.477,347.603 350.477,261 "/>
<polygon fill="#80BC67" points="350.477,261 300.477,347.603 250.477,261 "/>
<polygon fill="#80BC67" points="500.477,348 450.477,434.603 400.477,348 "/>
<polygon fill="#80BC67" points="400.477,348 350.477,434.603 300.477,348 "/>
<polygon fill="#80BC67" points="100.477,348 50.477,434.603 0.477,348 "/>
<polygon fill="#80BC67" points="450.477,435 400.477,521.603 350.477,435 "/>
<polygon fill="#80BC67" points="500.477,522 450.477,608.603 400.477,522 "/>
<polygon fill="#80BC67" points="300.477,522 250.477,608.603 200.477,522 "/>
<polygon fill="#80BC67" points="100.477,522 50.477,608.603 0.477,522 "/>
<polygon fill="#80BC67" points="650.477,609 600.477,695.603 550.477,609 "/>
<polygon fill="#80BC67" points="150.477,609 100.477,695.603 50.477,609 "/>
<polygon fill="#80BC67" points="900.477,696 850.477,782.603 800.477,696 "/>
<polygon fill="#80BC67" points="800.477,696 750.477,782.603 700.477,696 "/>
<polygon fill="#80BC67" points="700.477,696 650.477,782.603 600.477,696 "/>
<polygon fill="#80BC67" points="200.477,696 150.477,782.603 100.477,696 "/>
<polygon fill="#80BC67" points="100.477,696 50.477,782.603 0.477,696 "/>
<polygon fill="#80BC67" points="950.477,783 900.477,869.603 850.477,783 "/>
<polygon fill="#80BC67" points="750.477,783 700.477,869.603 650.477,783 "/>
<polygon fill="#80BC67" points="550.477,783 500.477,869.603 450.477,783 "/>
<polygon fill="#80BC67" points="450.477,783 400.477,869.603 350.477,783 "/>
<polygon fill="#80BC67" points="150.477,783 100.477,869.603 50.477,783 "/>
<polygon fill="#80BC67" points="1000.477,870 950.477,956.603 900.477,870 "/>
<polygon fill="#80BC67" points="400.477,870 350.477,956.603 300.477,870 "/>
<polygon fill="#80BC67" points="200.477,870 150.477,956.603 100.477,870 "/>
<polygon fill="#80BC67" points="1050.477,957 1000.477,1043.603 950.477,957 "/>
<polygon fill="#80BC67" points="950.477,957 900.477,1043.603 850.477,957 "/>
<polygon fill="#80BC67" points="850.477,957 800.477,1043.603 750.477,957 "/>
<polygon fill="#80BC67" points="550.477,957 500.477,1043.603 450.477,957 "/>
<polygon fill="#80BC67" points="450.477,957 400.477,1043.603 350.477,957 "/>
<polygon fill="#80BC67" points="50.477,957 0.477,1043.603 -49.523,957 "/>
<g id="darker">
	<polygon fill="#75AB5F" points="850.477,610 900.477,523.397 950.477,610 	"/>
	<polygon fill="#75AB5F" points="600.477,349 650.477,262.397 700.477,349 	"/>
	<polygon fill="#75AB5F" points="450.477,262 500.477,175.397 550.477,262 	"/>
	<polygon fill="#75AB5F" points="650.477,262 700.477,175.397 750.477,262 	"/>
	<polygon fill="#75AB5F" points="100.477,175 150.477,88.397 200.477,175 	"/>
	<polygon fill="#75AB5F" points="750.477,88 800.477,1.397 850.477,88 	"/>
	<polygon fill="#75AB5F" points="1000.477,1 950.477,87.603 900.477,1 	"/>
	<polygon fill="#75AB5F" points="300.477,1 250.477,87.603 200.477,1 	"/>
	<polygon fill="#75AB5F" points="1050.477,88 1000.477,174.603 950.477,88 	"/>
	<polygon fill="#75AB5F" points="650.477,88 600.477,174.603 550.477,88 	"/>
	<polygon fill="#75AB5F" points="850.477,262 800.477,348.603 750.477,262 	"/>
	<polygon fill="#75AB5F" points="1000.477,349 950.477,435.603 900.477,349 	"/>
	<polygon fill="#75AB5F" points="750.477,436 700.477,522.603 650.477,436 	"/>
	<polygon fill="#75AB5F" points="650.477,436 600.477,522.603 550.477,436 	"/>
	<polygon fill="#75AB5F" points="850.477,610 800.477,696.603 750.477,610 	"/>
	<polygon fill="#75AB5F" points="50.477,783 0.477,869.603 -49.523,783 	"/>
	<polygon fill="#75AB5F" points="1050.477,783 1000.477,869.603 950.477,783 	"/>
	<polygon fill="#75AB5F" points="50.477,87 0.477,173.603 -49.523,87 	"/>
</g>
<g id="dark_2_">
	<polygon fill="#7AB362" points="100.477,1044 150.477,957.397 200.477,1044 	"/>
	<polygon fill="#7AB362" points="750.477,957 800.477,870.397 850.477,957 	"/>
	<polygon fill="#7AB362" points="500.477,870 550.477,783.397 600.477,870 	"/>
	<polygon fill="#7AB362" points="100.477,696 150.477,609.397 200.477,696 	"/>
	<polygon fill="#7AB362" points="600.477,696 650.477,609.397 700.477,696 	"/>
	<polygon fill="#7AB362" points="250.477,609 300.477,522.397 350.477,609 	"/>
	<polygon fill="#7AB362" points="-49.523,435 0.477,348.397 50.477,435 	"/>
	<polygon fill="#7AB362" points="150.477,435 100.477,521.603 50.477,435 	"/>
	<polygon fill="#7AB362" points="700.477,522 650.477,608.603 600.477,522 	"/>
	<polygon fill="#7AB362" points="350.477,783 300.477,869.603 250.477,783 	"/>
	<g id="dark_1_">
		<polygon fill="#7AB362" points="300.477,1044 350.477,957.397 400.477,1044 		"/>
		<polygon fill="#7AB362" points="500.477,1044 550.477,957.397 600.477,1044 		"/>
		<polygon fill="#7AB362" points="800.477,1044 850.477,957.397 900.477,1044 		"/>
		<polygon fill="#7AB362" points="850.477,957 900.477,870.397 950.477,957 		"/>
		<polygon fill="#7AB362" points="0.477,870 50.477,783.397 100.477,870 		"/>
		<polygon fill="#7AB362" points="300.477,870 350.477,783.397 400.477,870 		"/>
		<polygon fill="#7AB362" points="50.477,609 100.477,522.397 150.477,609 		"/>
		<polygon fill="#7AB362" points="350.477,609 400.477,522.397 450.477,609 		"/>
		<polygon fill="#7AB362" points="550.477,609 600.477,522.397 650.477,609 		"/>
		<polygon fill="#7AB362" points="200.477,522 250.477,435.397 300.477,522 		"/>
		<polygon fill="#7AB362" points="200.477,348 150.477,434.603 100.477,348 		"/>
		<polygon fill="#7AB362" points="350.477,435 300.477,521.603 250.477,435 		"/>
		<polygon fill="#7AB362" points="350.477,609 300.477,695.603 250.477,609 		"/>
		<polygon fill="#7AB362" points="250.477,609 200.477,695.603 150.477,609 		"/>
		<polygon fill="#7AB362" points="500.477,696 450.477,782.603 400.477,696 		"/>
		<polygon fill="#7AB362" points="850.477,783 800.477,869.603 750.477,783 		"/>
		<polygon fill="#7AB362" points="650.477,783 600.477,869.603 550.477,783 		"/>
		<polygon fill="#7AB362" points="250.477,783 200.477,869.603 150.477,783 		"/>
		<polygon fill="#7AB362" points="800.477,870 750.477,956.603 700.477,870 		"/>
		<polygon fill="#7AB362" points="700.477,870 650.477,956.603 600.477,870 		"/>
		<polygon fill="#7AB362" points="500.477,870 450.477,956.603 400.477,870 		"/>
		<polygon fill="#7AB362" points="100.477,870 50.477,956.603 0.477,870 		"/>
		<polygon fill="#7AB362" points="650.477,957 600.477,1043.603 550.477,957 		"/>
		<polygon fill="#7AB362" points="250.477,957 200.477,1043.603 150.477,957 		"/>
		<g id="dark">
			<polygon fill="#7AB362" points="750.477,783 800.477,696.397 850.477,783 			"/>
			<polygon fill="#7AB362" points="450.477,435 500.477,348.397 550.477,435 			"/>
			<polygon fill="#7AB362" points="400.477,348 450.477,261.397 500.477,348 			"/>
			<polygon fill="#7AB362" points="900.477,348 950.477,261.397 1000.477,348 			"/>
			<polygon fill="#7AB362" points="50.477,261 100.477,174.397 150.477,261 			"/>
			<polygon fill="#7AB362" points="750.477,261 800.477,174.397 850.477,261 			"/>
			<polygon fill="#7AB362" points="500.477,174 550.477,87.397 600.477,174 			"/>
			<polygon fill="#7AB362" points="150.477,87 200.477,0.397 250.477,87 			"/>
			<polygon fill="#7AB362" points="450.477,87 500.477,0.397 550.477,87 			"/>
			<polygon fill="#7AB362" points="850.477,87 900.477,0.397 950.477,87 			"/>
			<polygon fill="#7AB362" points="750.477,87 700.477,173.603 650.477,87 			"/>
			<polygon fill="#7AB362" points="450.477,87 400.477,173.603 350.477,87 			"/>
			<polygon fill="#7AB362" points="400.477,174 350.477,260.603 300.477,174 			"/>
			<polygon fill="#7AB362" points="900.477,348 850.477,434.603 800.477,348 			"/>
			<polygon fill="#7AB362" points="700.477,348 650.477,434.603 600.477,348 			"/>
			<polygon fill="#7AB362" points="850.477,435 800.477,521.603 750.477,435 			"/>
			<polygon fill="#7AB362" points="1050.477,609 1000.477,695.603 950.477,609 			"/>
			<polygon fill="#7AB362" points="750.477,609 700.477,695.603 650.477,609 			"/>
		</g>
	</g>
	<polygon fill="#7AB362" points="950.477,435 1000.477,348.397 1050.477,435 	"/>
	<polygon fill="#7AB362" points="50.477,609 0.477,695.603 -49.523,609 	"/>
</g>
<g id="light_2_">
	<polygon fill="#86C46C" points="150.477,957 200.477,870.397 250.477,957 	"/>
	<polygon fill="#86C46C" points="100.477,870 150.477,783.397 200.477,870 	"/>
	<polygon fill="#86C46C" points="700.477,870 750.477,783.397 800.477,870 	"/>
	<polygon fill="#86C46C" points="900.477,870 950.477,783.397 1000.477,870 	"/>
	<polygon fill="#86C46C" points="150.477,783 200.477,696.397 250.477,783 	"/>
	<polygon fill="#86C46C" points="850.477,783 900.477,696.397 950.477,783 	"/>
	<polygon fill="#86C46C" points="0.477,522 50.477,435.397 100.477,522 	"/>
	<polygon fill="#86C46C" points="400.477,522 450.477,435.397 500.477,522 	"/>
	<polygon fill="#86C46C" points="350.477,435 400.477,348.397 450.477,435 	"/>
	<polygon fill="#86C46C" points="0.477,348 50.477,261.397 100.477,348 	"/>
	<polygon fill="#86C46C" points="700.477,348 750.477,261.397 800.477,348 	"/>
	<polygon fill="#86C46C" points="250.477,261 200.477,347.603 150.477,261 	"/>
	<polygon fill="#86C46C" points="300.477,348 250.477,434.603 200.477,348 	"/>
	<polygon fill="#86C46C" points="400.477,522 350.477,608.603 300.477,522 	"/>
	<polygon fill="#86C46C" points="450.477,609 400.477,695.603 350.477,609 	"/>
	<polygon fill="#86C46C" points="600.477,696 550.477,782.603 500.477,696 	"/>
	<polygon fill="#86C46C" points="300.477,696 250.477,782.603 200.477,696 	"/>
	<polygon fill="#86C46C" points="350.477,957 300.477,1043.603 250.477,957 	"/>
	<g id="light_1_">
		<polygon fill="#86C46C" points="400.477,1044 450.477,957.397 500.477,1044 		"/>
		<polygon fill="#86C46C" points="900.477,1044 950.477,957.397 1000.477,1044 		"/>
		<polygon fill="#86C46C" points="-49.523,957 0.477,870.397 50.477,957 		"/>
		<polygon fill="#86C46C" points="350.477,957 400.477,870.397 450.477,957 		"/>
		<polygon fill="#86C46C" points="950.477,957 1000.477,870.397 1050.477,957 		"/>
		<polygon fill="#86C46C" points="400.477,870 450.477,783.397 500.477,870 		"/>
		<polygon fill="#86C46C" points="50.477,783 100.477,696.397 150.477,783 		"/>
		<polygon fill="#86C46C" points="550.477,783 600.477,696.397 650.477,783 		"/>
		<polygon fill="#86C46C" points="650.477,783 700.477,696.397 750.477,783 		"/>
		<polygon fill="#86C46C" points="0.477,696 50.477,609.397 100.477,696 		"/>
		<polygon fill="#86C46C" points="300.477,522 350.477,435.397 400.477,522 		"/>
		<polygon fill="#86C46C" points="250.477,435 300.477,348.397 350.477,435 		"/>
		<polygon fill="#86C46C" points="550.477,435 500.477,521.603 450.477,435 		"/>
		<polygon fill="#86C46C" points="250.477,435 200.477,521.603 150.477,435 		"/>
		<polygon fill="#86C46C" points="600.477,522 550.477,608.603 500.477,522 		"/>
		<polygon fill="#86C46C" points="200.477,522 150.477,608.603 100.477,522 		"/>
		<polygon fill="#86C46C" points="550.477,609 500.477,695.603 450.477,609 		"/>
		<polygon fill="#86C46C" points="400.477,696 350.477,782.603 300.477,696 		"/>
		<polygon fill="#86C46C" points="900.477,870 850.477,956.603 800.477,870 		"/>
		<polygon fill="#86C46C" points="600.477,870 550.477,956.603 500.477,870 		"/>
		<polygon fill="#86C46C" points="300.477,870 250.477,956.603 200.477,870 		"/>
		<polygon fill="#86C46C" points="750.477,957 700.477,1043.603 650.477,957 		"/>
		<polygon fill="#86C46C" points="150.477,957 100.477,1043.603 50.477,957 		"/>
		<g id="light">
			<polygon fill="#86C46C" points="500.477,348 550.477,261.397 600.477,348 			"/>
			<polygon fill="#86C46C" points="800.477,348 850.477,261.397 900.477,348 			"/>
			<polygon fill="#86C46C" points="250.477,261 300.477,174.397 350.477,261 			"/>
			<polygon fill="#86C46C" points="950.477,261 1000.477,174.397 1050.477,261 			"/>
			<polygon fill="#86C46C" points="400.477,174 450.477,87.397 500.477,174 			"/>
			<polygon fill="#86C46C" points="700.477,174 750.477,87.397 800.477,174 			"/>
			<polygon fill="#86C46C" points="900.477,174 950.477,87.397 1000.477,174 			"/>
			<polygon fill="#86C46C" points="-49.523,87 0.477,0.397 50.477,87 			"/>
			<polygon fill="#86C46C" points="700.477,0 650.477,86.603 600.477,0 			"/>
			<polygon fill="#86C46C" points="600.477,0 550.477,86.603 500.477,0 			"/>
			<polygon fill="#86C46C" points="400.477,0 350.477,86.603 300.477,0 			"/>
			<polygon fill="#86C46C" points="350.477,87 300.477,173.603 250.477,87 			"/>
			<polygon fill="#86C46C" points="150.477,87 100.477,173.603 50.477,87 			"/>
			<polygon fill="#86C46C" points="700.477,174 650.477,260.603 600.477,174 			"/>
			<polygon fill="#86C46C" points="150.477,261 100.477,347.603 50.477,261 			"/>
			<polygon fill="#86C46C" points="800.477,348 750.477,434.603 700.477,348 			"/>
			<polygon fill="#86C46C" points="950.477,435 900.477,521.603 850.477,435 			"/>
			<polygon fill="#86C46C" points="1000.477,522 950.477,608.603 900.477,522 			"/>
			<polygon fill="#86C46C" points="800.477,522 750.477,608.603 700.477,522 			"/>
			<polygon fill="#86C46C" points="1000.477,696 950.477,782.603 900.477,696 			"/>
		</g>
	</g>
	<polygon fill="#86C46C" points="950.477,87 1000.477,0.397 1050.477,87 	"/>
	<polygon fill="#86C46C" points="-49.523,261 0.477,174.397 50.477,261 	"/>
</g>
<g id="lighter">
	<polygon fill="#8ACC6C" points="650.477,435 700.477,348.397 750.477,435 	"/>
	<polygon fill="#8ACC6C" points="850.477,435 900.477,348.397 950.477,435 	"/>
	<polygon fill="#8ACC6C" points="300.477,348 350.477,261.397 400.477,348 	"/>
	<polygon fill="#8ACC6C" points="150.477,261 200.477,174.397 250.477,261 	"/>
	<polygon fill="#8ACC6C" points="850.477,261 900.477,174.397 950.477,261 	"/>
	<polygon fill="#8ACC6C" points="0.477,174 50.477,87.397 100.477,174 	"/>
	<polygon fill="#8ACC6C" points="200.477,174 250.477,87.397 300.477,174 	"/>
	<polygon fill="#8ACC6C" points="800.477,174 850.477,87.397 900.477,174 	"/>
	<polygon fill="#8ACC6C" points="650.477,87 700.477,0.397 750.477,87 	"/>
	<polygon fill="#8ACC6C" points="500.477,0 450.477,86.603 400.477,0 	"/>
	<polygon fill="#8ACC6C" points="100.477,0 50.477,86.603 0.477,0 	"/>
	<polygon fill="#8ACC6C" points="600.477,174 550.477,260.603 500.477,174 	"/>
	<polygon fill="#8ACC6C" points="500.477,174 450.477,260.603 400.477,174 	"/>
	<polygon fill="#8ACC6C" points="1050.477,261 1000.477,347.603 950.477,261 	"/>
	<polygon fill="#8ACC6C" points="50.477,261 0.477,347.603 -49.523,261 	"/>
	<polygon fill="#8ACC6C" points="600.477,348 550.477,434.603 500.477,348 	"/>
	<polygon fill="#8ACC6C" points="1050.477,435 1000.477,521.603 950.477,435 	"/>
	<polygon fill="#8ACC6C" points="900.477,522 850.477,608.603 800.477,522 	"/>
	<polygon fill="#8ACC6C" points="950.477,609 900.477,695.603 850.477,609 	"/>
	<polygon fill="#8ACC6C" points="50.477,435 0.477,521.603 -49.523,435 	"/>
</g>
</svg>
