<?xml version="1.0" encoding="utf-8"?>
<!-- Generator: Adobe Illustrator 15.0.2, SVG Export Plug-In . SVG Version: 6.00 Build 0)  -->
<!DOCTYPE svg PUBLIC "-//W3C//DTD SVG 1.1//EN" "http://www.w3.org/Graphics/SVG/1.1/DTD/svg11.dtd">
<svg version="1.1" id="Layer_1" xmlns="http://www.w3.org/2000/svg" xmlns:xlink="http://www.w3.org/1999/xlink" x="0px" y="0px"
	 width="1000px" height="1000px" viewBox="0 0 1000 1000" enable-background="new 0 0 1000 1000" xml:space="preserve">
<rect x="-229" y="-142" fill="#80BC67" width="1545" height="1224"/>
<polygon fill="#80BC67" points="0.477,1000 50.477,913.397 100.477,1000 "/>
<polygon fill="#80BC67" points="200.477,1000 250.477,913.397 300.477,1000 "/>
<polygon fill="#80BC67" points="600.477,1000 650.477,913.397 700.477,1000 "/>
<polygon fill="#80BC67" points="700.477,1000 750.477,913.397 800.477,1000 "/>
<polygon fill="#80BC67" points="50.477,913 100.477,826.397 150.477,913 "/>
<polygon fill="#80BC67" points="250.477,913 300.477,826.397 350.477,913 "/>
<polygon fill="#80BC67" points="450.477,913 500.477,826.397 550.477,913 "/>
<polygon fill="#80BC67" points="550.477,913 600.477,826.397 650.477,913 "/>
<polygon fill="#80BC67" points="650.477,913 700.477,826.397 750.477,913 "/>
<polygon fill="#80BC67" points="200.477,826 250.477,739.397 300.477,826 "/>
<polygon fill="#80BC67" points="600.477,826 650.477,739.397 700.477,826 "/>
<polygon fill="#80BC67" points="800.477,826 850.477,739.397 900.477,826 "/>
<polygon fill="#80BC67" points="250.477,739 300.477,652.397 350.477,739 "/>
<polygon fill="#80BC67" points="350.477,739 400.477,652.397 450.477,739 "/>
<polygon fill="#80BC67" points="450.477,739 500.477,652.397 550.477,739 "/>
<polygon fill="#80BC67" points="950.477,739 1000.477,652.397 1050.477,739 "/>
<polygon fill="#80BC67" points="200.477,652 250.477,565.397 300.477,652 "/>
<polygon fill="#80BC67" points="300.477,652 350.477,565.397 400.477,652 "/>
<polygon fill="#80BC67" points="400.477,652 450.477,565.397 500.477,652 "/>
<polygon fill="#80BC67" points="500.477,652 550.477,565.397 600.477,652 "/>
<polygon fill="#80BC67" points="700.477,652 750.477,565.397 800.477,652 "/>
<polygon fill="#80BC67" points="800.477,652 850.477,565.397 900.477,652 "/>
<polygon fill="#80BC67" points="900.477,652 950.477,565.397 1000.477,652 "/>
<polygon fill="#80BC67" points="150.477,565 200.477,478.397 250.477,565 "/>
<polygon fill="#80BC67" points="450.477,565 500.477,478.397 550.477,565 "/>
<polygon fill="#80BC67" points="650.477,565 700.477,478.397 750.477,565 "/>
<polygon fill="#80BC67" points="750.477,565 800.477,478.397 850.477,565 "/>
<polygon fill="#80BC67" points="950.477,565 1000.477,478.397 1050.477,565 "/>
<polygon fill="#80BC67" points="100.477,478 150.477,391.397 200.477,478 "/>
<polygon fill="#80BC67" points="500.477,478 550.477,391.397 600.477,478 "/>
<polygon fill="#80BC67" points="600.477,478 650.477,391.397 700.477,478 "/>
<polygon fill="#80BC67" points="700.477,478 750.477,391.397 800.477,478 "/>
<polygon fill="#80BC67" points="800.477,478 850.477,391.397 900.477,478 "/>
<polygon fill="#80BC67" points="900.477,478 950.477,391.397 1000.477,478 "/>
<polygon fill="#80BC67" points="50.477,391 100.477,304.397 150.477,391 "/>
<polygon fill="#80BC67" points="150.477,391 200.477,304.397 250.477,391 "/>
<polygon fill="#80BC67" points="550.477,391 600.477,304.397 650.477,391 "/>
<polygon fill="#80BC67" points="750.477,391 800.477,304.397 850.477,391 "/>
<polygon fill="#80BC67" points="950.477,391 1000.477,304.397 1050.477,391 "/>
<polygon fill="#80BC67" points="100.477,304 150.477,217.397 200.477,304 "/>
<polygon fill="#80BC67" points="200.477,304 250.477,217.397 300.477,304 "/>
<polygon fill="#80BC67" points="350.477,217 400.477,130.397 450.477,217 "/>
<polygon fill="#80BC67" points="550.477,217 600.477,130.397 650.477,217 "/>
<polygon fill="#80BC67" points="300.477,130 350.477,43.397 400.477,130 "/>
<polygon fill="#80BC67" points="600.477,130 650.477,43.397 700.477,130 "/>
<polygon fill="#80BC67" points="50.477,43 100.477,-43.603 150.477,43 "/>
<polygon fill="#80BC67" points="250.477,43 300.477,-43.603 350.477,43 "/>
<polygon fill="#80BC67" points="350.477,43 400.477,-43.603 450.477,43 "/>
<polygon fill="#80BC67" points="550.477,43 600.477,-43.603 650.477,43 "/>
<polygon fill="#80BC67" points="900.477,-44 850.477,42.603 800.477,-44 "/>
<polygon fill="#80BC67" points="800.477,-44 750.477,42.603 700.477,-44 "/>
<polygon fill="#80BC67" points="200.477,-44 150.477,42.603 100.477,-44 "/>
<polygon fill="#80BC67" points="950.477,43 900.477,129.603 850.477,43 "/>
<polygon fill="#80BC67" points="850.477,43 800.477,129.603 750.477,43 "/>
<polygon fill="#80BC67" points="550.477,43 500.477,129.603 450.477,43 "/>
<polygon fill="#80BC67" points="250.477,43 200.477,129.603 150.477,43 "/>
<polygon fill="#80BC67" points="50.477,43 0.477,129.603 -49.523,43 "/>
<polygon fill="#80BC67" points="1000.477,130 950.477,216.603 900.477,130 "/>
<polygon fill="#80BC67" points="900.477,130 850.477,216.603 800.477,130 "/>
<polygon fill="#80BC67" points="800.477,130 750.477,216.603 700.477,130 "/>
<polygon fill="#80BC67" points="300.477,130 250.477,216.603 200.477,130 "/>
<polygon fill="#80BC67" points="200.477,130 150.477,216.603 100.477,130 "/>
<polygon fill="#80BC67" points="100.477,130 50.477,216.603 0.477,130 "/>
<polygon fill="#80BC67" points="950.477,217 900.477,303.603 850.477,217 "/>
<polygon fill="#80BC67" points="750.477,217 700.477,303.603 650.477,217 "/>
<polygon fill="#80BC67" points="650.477,217 600.477,303.603 550.477,217 "/>
<polygon fill="#80BC67" points="550.477,217 500.477,303.603 450.477,217 "/>
<polygon fill="#80BC67" points="450.477,217 400.477,303.603 350.477,217 "/>
<polygon fill="#80BC67" points="350.477,217 300.477,303.603 250.477,217 "/>
<polygon fill="#80BC67" points="500.477,304 450.477,390.603 400.477,304 "/>
<polygon fill="#80BC67" points="400.477,304 350.477,390.603 300.477,304 "/>
<polygon fill="#80BC67" points="100.477,304 50.477,390.603 0.477,304 "/>
<polygon fill="#80BC67" points="450.477,391 400.477,477.603 350.477,391 "/>
<polygon fill="#80BC67" points="500.477,478 450.477,564.603 400.477,478 "/>
<polygon fill="#80BC67" points="300.477,478 250.477,564.603 200.477,478 "/>
<polygon fill="#80BC67" points="100.477,478 50.477,564.603 0.477,478 "/>
<polygon fill="#80BC67" points="650.477,565 600.477,651.603 550.477,565 "/>
<polygon fill="#80BC67" points="150.477,565 100.477,651.603 50.477,565 "/>
<polygon fill="#80BC67" points="900.477,652 850.477,738.603 800.477,652 "/>
<polygon fill="#80BC67" points="800.477,652 750.477,738.603 700.477,652 "/>
<polygon fill="#80BC67" points="700.477,652 650.477,738.603 600.477,652 "/>
<polygon fill="#80BC67" points="200.477,652 150.477,738.603 100.477,652 "/>
<polygon fill="#80BC67" points="100.477,652 50.477,738.603 0.477,652 "/>
<polygon fill="#80BC67" points="950.477,739 900.477,825.603 850.477,739 "/>
<polygon fill="#80BC67" points="750.477,739 700.477,825.603 650.477,739 "/>
<polygon fill="#80BC67" points="550.477,739 500.477,825.603 450.477,739 "/>
<polygon fill="#80BC67" points="450.477,739 400.477,825.603 350.477,739 "/>
<polygon fill="#80BC67" points="150.477,739 100.477,825.603 50.477,739 "/>
<polygon fill="#80BC67" points="50.477,739 0.477,825.603 -49.523,739 "/>
<polygon fill="#80BC67" points="1000.477,826 950.477,912.603 900.477,826 "/>
<polygon fill="#80BC67" points="400.477,826 350.477,912.603 300.477,826 "/>
<polygon fill="#80BC67" points="200.477,826 150.477,912.603 100.477,826 "/>
<polygon fill="#80BC67" points="1050.477,913 1000.477,999.603 950.477,913 "/>
<polygon fill="#80BC67" points="950.477,913 900.477,999.603 850.477,913 "/>
<polygon fill="#80BC67" points="850.477,913 800.477,999.603 750.477,913 "/>
<polygon fill="#80BC67" points="550.477,913 500.477,999.603 450.477,913 "/>
<polygon fill="#80BC67" points="450.477,913 400.477,999.603 350.477,913 "/>
<polygon fill="#80BC67" points="50.477,913 0.477,999.603 -49.523,913 "/>
<g id="darker">
	<polygon fill="#75AB5F" points="850.477,566 900.477,479.397 950.477,566 	"/>
	<polygon fill="#75AB5F" points="600.477,305 650.477,218.397 700.477,305 	"/>
	<polygon fill="#75AB5F" points="450.477,218 500.477,131.397 550.477,218 	"/>
	<polygon fill="#75AB5F" points="650.477,218 700.477,131.397 750.477,218 	"/>
	<polygon fill="#75AB5F" points="100.477,131 150.477,44.397 200.477,131 	"/>
	<polygon fill="#75AB5F" points="750.477,44 800.477,-42.603 850.477,44 	"/>
	<polygon fill="#75AB5F" points="1000.477,-43 950.477,43.603 900.477,-43 	"/>
	<polygon fill="#75AB5F" points="300.477,-43 250.477,43.603 200.477,-43 	"/>
	<polygon fill="#75AB5F" points="1050.477,44 1000.477,130.603 950.477,44 	"/>
	<polygon fill="#75AB5F" points="650.477,44 600.477,130.603 550.477,44 	"/>
	<polygon fill="#75AB5F" points="850.477,218 800.477,304.603 750.477,218 	"/>
	<polygon fill="#75AB5F" points="1000.477,305 950.477,391.603 900.477,305 	"/>
	<polygon fill="#75AB5F" points="750.477,392 700.477,478.603 650.477,392 	"/>
	<polygon fill="#75AB5F" points="650.477,392 600.477,478.603 550.477,392 	"/>
	<polygon fill="#75AB5F" points="850.477,566 800.477,652.603 750.477,566 	"/>
</g>
<g>
	<polygon fill="#7AB362" points="100.477,1000 150.477,913.397 200.477,1000 	"/>
	<polygon fill="#7AB362" points="750.477,913 800.477,826.397 850.477,913 	"/>
	<polygon fill="#7AB362" points="500.477,826 550.477,739.397 600.477,826 	"/>
	<polygon fill="#7AB362" points="100.477,652 150.477,565.397 200.477,652 	"/>
	<polygon fill="#7AB362" points="600.477,652 650.477,565.397 700.477,652 	"/>
	<polygon fill="#7AB362" points="250.477,565 300.477,478.397 350.477,565 	"/>
	<polygon fill="#7AB362" points="-49.523,391 0.477,304.397 50.477,391 	"/>
	<polygon fill="#7AB362" points="150.477,391 100.477,477.603 50.477,391 	"/>
	<polygon fill="#7AB362" points="700.477,478 650.477,564.603 600.477,478 	"/>
	<polygon fill="#7AB362" points="350.477,739 300.477,825.603 250.477,739 	"/>
	<g id="dark_1_">
		<polygon fill="#7AB362" points="300.477,1000 350.477,913.397 400.477,1000 		"/>
		<polygon fill="#7AB362" points="500.477,1000 550.477,913.397 600.477,1000 		"/>
		<polygon fill="#7AB362" points="800.477,1000 850.477,913.397 900.477,1000 		"/>
		<polygon fill="#7AB362" points="850.477,913 900.477,826.397 950.477,913 		"/>
		<polygon fill="#7AB362" points="0.477,826 50.477,739.397 100.477,826 		"/>
		<polygon fill="#7AB362" points="300.477,826 350.477,739.397 400.477,826 		"/>
		<polygon fill="#7AB362" points="-49.523,565 0.477,478.397 50.477,565 		"/>
		<polygon fill="#7AB362" points="50.477,565 100.477,478.397 150.477,565 		"/>
		<polygon fill="#7AB362" points="350.477,565 400.477,478.397 450.477,565 		"/>
		<polygon fill="#7AB362" points="550.477,565 600.477,478.397 650.477,565 		"/>
		<polygon fill="#7AB362" points="200.477,478 250.477,391.397 300.477,478 		"/>
		<polygon fill="#7AB362" points="200.477,304 150.477,390.603 100.477,304 		"/>
		<polygon fill="#7AB362" points="350.477,391 300.477,477.603 250.477,391 		"/>
		<polygon fill="#7AB362" points="50.477,391 0.477,477.603 -49.523,391 		"/>
		<polygon fill="#7AB362" points="350.477,565 300.477,651.603 250.477,565 		"/>
		<polygon fill="#7AB362" points="250.477,565 200.477,651.603 150.477,565 		"/>
		<polygon fill="#7AB362" points="500.477,652 450.477,738.603 400.477,652 		"/>
		<polygon fill="#7AB362" points="1050.477,739 1000.477,825.603 950.477,739 		"/>
		<polygon fill="#7AB362" points="850.477,739 800.477,825.603 750.477,739 		"/>
		<polygon fill="#7AB362" points="650.477,739 600.477,825.603 550.477,739 		"/>
		<polygon fill="#7AB362" points="250.477,739 200.477,825.603 150.477,739 		"/>
		<polygon fill="#7AB362" points="800.477,826 750.477,912.603 700.477,826 		"/>
		<polygon fill="#7AB362" points="700.477,826 650.477,912.603 600.477,826 		"/>
		<polygon fill="#7AB362" points="500.477,826 450.477,912.603 400.477,826 		"/>
		<polygon fill="#7AB362" points="100.477,826 50.477,912.603 0.477,826 		"/>
		<polygon fill="#7AB362" points="650.477,913 600.477,999.603 550.477,913 		"/>
		<polygon fill="#7AB362" points="250.477,913 200.477,999.603 150.477,913 		"/>
		<g id="dark">
			<polygon fill="#7AB362" points="750.477,739 800.477,652.397 850.477,739 			"/>
			<polygon fill="#7AB362" points="450.477,391 500.477,304.397 550.477,391 			"/>
			<polygon fill="#7AB362" points="400.477,304 450.477,217.397 500.477,304 			"/>
			<polygon fill="#7AB362" points="900.477,304 950.477,217.397 1000.477,304 			"/>
			<polygon fill="#7AB362" points="-49.523,217 0.477,130.397 50.477,217 			"/>
			<polygon fill="#7AB362" points="50.477,217 100.477,130.397 150.477,217 			"/>
			<polygon fill="#7AB362" points="750.477,217 800.477,130.397 850.477,217 			"/>
			<polygon fill="#7AB362" points="500.477,130 550.477,43.397 600.477,130 			"/>
			<polygon fill="#7AB362" points="150.477,43 200.477,-43.603 250.477,43 			"/>
			<polygon fill="#7AB362" points="450.477,43 500.477,-43.603 550.477,43 			"/>
			<polygon fill="#7AB362" points="850.477,43 900.477,-43.603 950.477,43 			"/>
			<polygon fill="#7AB362" points="750.477,43 700.477,129.603 650.477,43 			"/>
			<polygon fill="#7AB362" points="450.477,43 400.477,129.603 350.477,43 			"/>
			<polygon fill="#7AB362" points="400.477,130 350.477,216.603 300.477,130 			"/>
			<polygon fill="#7AB362" points="900.477,304 850.477,390.603 800.477,304 			"/>
			<polygon fill="#7AB362" points="700.477,304 650.477,390.603 600.477,304 			"/>
			<polygon fill="#7AB362" points="850.477,391 800.477,477.603 750.477,391 			"/>
			<polygon fill="#7AB362" points="1050.477,565 1000.477,651.603 950.477,565 			"/>
			<polygon fill="#7AB362" points="750.477,565 700.477,651.603 650.477,565 			"/>
		</g>
	</g>
</g>
<g>
	<polygon fill="#86C46C" points="150.477,913 200.477,826.397 250.477,913 	"/>
	<polygon fill="#86C46C" points="100.477,826 150.477,739.397 200.477,826 	"/>
	<polygon fill="#86C46C" points="700.477,826 750.477,739.397 800.477,826 	"/>
	<polygon fill="#86C46C" points="900.477,826 950.477,739.397 1000.477,826 	"/>
	<polygon fill="#86C46C" points="-49.523,739 0.477,652.397 50.477,739 	"/>
	<polygon fill="#86C46C" points="150.477,739 200.477,652.397 250.477,739 	"/>
	<polygon fill="#86C46C" points="850.477,739 900.477,652.397 950.477,739 	"/>
	<polygon fill="#86C46C" points="0.477,478 50.477,391.397 100.477,478 	"/>
	<polygon fill="#86C46C" points="400.477,478 450.477,391.397 500.477,478 	"/>
	<polygon fill="#86C46C" points="350.477,391 400.477,304.397 450.477,391 	"/>
	<polygon fill="#86C46C" points="0.477,304 50.477,217.397 100.477,304 	"/>
	<polygon fill="#86C46C" points="700.477,304 750.477,217.397 800.477,304 	"/>
	<polygon fill="#86C46C" points="250.477,217 200.477,303.603 150.477,217 	"/>
	<polygon fill="#86C46C" points="300.477,304 250.477,390.603 200.477,304 	"/>
	<polygon fill="#86C46C" points="400.477,478 350.477,564.603 300.477,478 	"/>
	<polygon fill="#86C46C" points="450.477,565 400.477,651.603 350.477,565 	"/>
	<polygon fill="#86C46C" points="50.477,565 0.477,651.603 -49.523,565 	"/>
	<polygon fill="#86C46C" points="600.477,652 550.477,738.603 500.477,652 	"/>
	<polygon fill="#86C46C" points="300.477,652 250.477,738.603 200.477,652 	"/>
	<polygon fill="#86C46C" points="350.477,913 300.477,999.603 250.477,913 	"/>
	<g id="light_1_">
		<polygon fill="#86C46C" points="400.477,1000 450.477,913.397 500.477,1000 		"/>
		<polygon fill="#86C46C" points="900.477,1000 950.477,913.397 1000.477,1000 		"/>
		<polygon fill="#86C46C" points="-49.523,913 0.477,826.397 50.477,913 		"/>
		<polygon fill="#86C46C" points="350.477,913 400.477,826.397 450.477,913 		"/>
		<polygon fill="#86C46C" points="950.477,913 1000.477,826.397 1050.477,913 		"/>
		<polygon fill="#86C46C" points="400.477,826 450.477,739.397 500.477,826 		"/>
		<polygon fill="#86C46C" points="50.477,739 100.477,652.397 150.477,739 		"/>
		<polygon fill="#86C46C" points="550.477,739 600.477,652.397 650.477,739 		"/>
		<polygon fill="#86C46C" points="650.477,739 700.477,652.397 750.477,739 		"/>
		<polygon fill="#86C46C" points="0.477,652 50.477,565.397 100.477,652 		"/>
		<polygon fill="#86C46C" points="300.477,478 350.477,391.397 400.477,478 		"/>
		<polygon fill="#86C46C" points="250.477,391 300.477,304.397 350.477,391 		"/>
		<polygon fill="#86C46C" points="550.477,391 500.477,477.603 450.477,391 		"/>
		<polygon fill="#86C46C" points="250.477,391 200.477,477.603 150.477,391 		"/>
		<polygon fill="#86C46C" points="600.477,478 550.477,564.603 500.477,478 		"/>
		<polygon fill="#86C46C" points="200.477,478 150.477,564.603 100.477,478 		"/>
		<polygon fill="#86C46C" points="550.477,565 500.477,651.603 450.477,565 		"/>
		<polygon fill="#86C46C" points="400.477,652 350.477,738.603 300.477,652 		"/>
		<polygon fill="#86C46C" points="900.477,826 850.477,912.603 800.477,826 		"/>
		<polygon fill="#86C46C" points="600.477,826 550.477,912.603 500.477,826 		"/>
		<polygon fill="#86C46C" points="300.477,826 250.477,912.603 200.477,826 		"/>
		<polygon fill="#86C46C" points="750.477,913 700.477,999.603 650.477,913 		"/>
		<polygon fill="#86C46C" points="150.477,913 100.477,999.603 50.477,913 		"/>
		<g id="light">
			<polygon fill="#86C46C" points="500.477,304 550.477,217.397 600.477,304 			"/>
			<polygon fill="#86C46C" points="800.477,304 850.477,217.397 900.477,304 			"/>
			<polygon fill="#86C46C" points="250.477,217 300.477,130.397 350.477,217 			"/>
			<polygon fill="#86C46C" points="950.477,217 1000.477,130.397 1050.477,217 			"/>
			<polygon fill="#86C46C" points="400.477,130 450.477,43.397 500.477,130 			"/>
			<polygon fill="#86C46C" points="700.477,130 750.477,43.397 800.477,130 			"/>
			<polygon fill="#86C46C" points="900.477,130 950.477,43.397 1000.477,130 			"/>
			<polygon fill="#86C46C" points="-49.523,43 0.477,-43.603 50.477,43 			"/>
			<polygon fill="#86C46C" points="700.477,-44 650.477,42.603 600.477,-44 			"/>
			<polygon fill="#86C46C" points="600.477,-44 550.477,42.603 500.477,-44 			"/>
			<polygon fill="#86C46C" points="400.477,-44 350.477,42.603 300.477,-44 			"/>
			<polygon fill="#86C46C" points="350.477,43 300.477,129.603 250.477,43 			"/>
			<polygon fill="#86C46C" points="150.477,43 100.477,129.603 50.477,43 			"/>
			<polygon fill="#86C46C" points="700.477,130 650.477,216.603 600.477,130 			"/>
			<polygon fill="#86C46C" points="150.477,217 100.477,303.603 50.477,217 			"/>
			<polygon fill="#86C46C" points="800.477,304 750.477,390.603 700.477,304 			"/>
			<polygon fill="#86C46C" points="950.477,391 900.477,477.603 850.477,391 			"/>
			<polygon fill="#86C46C" points="1000.477,478 950.477,564.603 900.477,478 			"/>
			<polygon fill="#86C46C" points="800.477,478 750.477,564.603 700.477,478 			"/>
			<polygon fill="#86C46C" points="1000.477,652 950.477,738.603 900.477,652 			"/>
		</g>
	</g>
</g>
<g id="lighter">
	<polygon fill="#8ACC6C" points="650.477,391 700.477,304.397 750.477,391 	"/>
	<polygon fill="#8ACC6C" points="850.477,391 900.477,304.397 950.477,391 	"/>
	<polygon fill="#8ACC6C" points="300.477,304 350.477,217.397 400.477,304 	"/>
	<polygon fill="#8ACC6C" points="150.477,217 200.477,130.397 250.477,217 	"/>
	<polygon fill="#8ACC6C" points="850.477,217 900.477,130.397 950.477,217 	"/>
	<polygon fill="#8ACC6C" points="0.477,130 50.477,43.397 100.477,130 	"/>
	<polygon fill="#8ACC6C" points="200.477,130 250.477,43.397 300.477,130 	"/>
	<polygon fill="#8ACC6C" points="800.477,130 850.477,43.397 900.477,130 	"/>
	<polygon fill="#8ACC6C" points="650.477,43 700.477,-43.603 750.477,43 	"/>
	<polygon fill="#8ACC6C" points="950.477,43 1000.477,-43.603 1050.477,43 	"/>
	<polygon fill="#8ACC6C" points="500.477,-44 450.477,42.603 400.477,-44 	"/>
	<polygon fill="#8ACC6C" points="100.477,-44 50.477,42.603 0.477,-44 	"/>
	<polygon fill="#8ACC6C" points="600.477,130 550.477,216.603 500.477,130 	"/>
	<polygon fill="#8ACC6C" points="500.477,130 450.477,216.603 400.477,130 	"/>
	<polygon fill="#8ACC6C" points="1050.477,217 1000.477,303.603 950.477,217 	"/>
	<polygon fill="#8ACC6C" points="50.477,217 0.477,303.603 -49.523,217 	"/>
	<polygon fill="#8ACC6C" points="600.477,304 550.477,390.603 500.477,304 	"/>
	<polygon fill="#8ACC6C" points="1050.477,391 1000.477,477.603 950.477,391 	"/>
	<polygon fill="#8ACC6C" points="900.477,478 850.477,564.603 800.477,478 	"/>
	<polygon fill="#8ACC6C" points="950.477,565 900.477,651.603 850.477,565 	"/>
</g>
</svg>
